<svg xmlns="http://www.w3.org/2000/svg" width="623" height="148" viewBox="0 0 623 148"><g transform="translate(-388.5 -2038)"><path d="M1116,2275.922h211.187v80" transform="translate(-317.187 -169.922)" fill="none" stroke="#000" stroke-width="3"/><path d="M1325.5,2275.922H1116v80" transform="translate(-726 -169.922)" fill="none" stroke="#000" stroke-width="3"/><path d="M1006,2293v32.555" transform="translate(-306 -139.555)" fill="none" stroke="#000" stroke-width="3"/><g transform="translate(600 2038)"><path d="M9.233,10.22c2.914-.127,10.02-.384,13.633-1.283-.117,1.669-.35,6.8-.35,16.552v4.362c3.262-2.952,5.943-4.492,9.205-4.492a9.385,9.385,0,0,1,8.389,4.748A21.758,21.758,0,0,1,42.44,40.5c0,11.931-5.126,18.733-15.5,18.733a18.113,18.113,0,0,1-8.156-2.182c-1.4.513-3.262,1.54-5.126,2.182l-.583-.386c.117-3.465.117-10.008.117-18.862V23.564c0-4.106-.117-6.928-.233-9.365C12.844,12.53,12.5,12.273,9,12.273ZM26.943,56.8c3.961,0,5.826-5.262,5.826-15.013a23.053,23.053,0,0,0-1.631-9.495c-.932-1.667-2.1-2.566-3.728-2.566A5.3,5.3,0,0,0,23.1,32.545c-.582.9-.815,1.669-.815,11.8,0,8.341.35,8.6.817,9.624A4.2,4.2,0,0,0,26.943,56.8Zm35.885,1.669c-2.448,0-4.893-.259-8.739-.259-4.077,0-6.059.259-8.038.259V56.283c3.262-.129,3.728-.77,3.846-2.182.116-1.54.233-3.976.233-7.955V37.934c0-3.336,0-6.029-.117-7.185s-.583-1.54-3.613-1.41V27.156c4.079-.384,8.972-.513,12.934-1.41-.117,1.669-.233,4.748-.233,11.8V46.4c0,4.106.117,5.9.233,7.7s.583,2.053,3.5,2.437Zm-8.739-47.6c3.031,0,4.778,1.926,4.778,5.389a4.746,4.746,0,0,1-5.011,5c-2.679,0-4.543-2.053-4.543-5,0-3.079,1.864-5.389,4.778-5.389Zm11.769-.643a78.258,78.258,0,0,0,12.7-1.283q-.236,7.952-.235,15.91V40.886c2.215-.643,6.991-7.058,8.855-10.778.35-.77.35-1.156-.582-1.156L84.033,28.7v-2.18c4.312.129,8.739-.129,13.167-.386v2.182c-3.262.386-4.545.643-5.827,1.8a57.924,57.924,0,0,0-5.593,6.415c1.4,3.209,7.226,15.013,9.438,18.219a3.151,3.151,0,0,0,2.914,1.54l1.629.129-.116,2.18a78.539,78.539,0,0,0-12.934.77c-1.4-3.593-5.593-12.317-6.873-15.013-.7-1.41-1.05-1.924-1.516-1.8,0,5.262-.116,7.828.117,11.547.117,1.669.466,2.182,3.613,2.309v2.182c-2.215,0-4.545-.257-8.389-.257-4.545,0-6.525.257-8.273.257V56.41c3.029-.127,3.5-.768,3.613-2.053.116-1.54.231-4.876.231-11.547V26.259c0-5.262,0-9.238-.116-12.574q0-1.155-1.4-1.156H65.74ZM37.779,90.155c-1.982,6.928-5.826,10.264-12.235,10.264-5.477,0-8.972-1.669-11.418-5.262-1.864-2.693-2.8-6.672-2.8-11.162,0-9.881,5.477-17.449,15.5-17.449,6.059,0,10.486,3.079,10.486,8.084a4.574,4.574,0,0,1-4.66,4.874,4.9,4.9,0,0,1-2.33-.641,2.1,2.1,0,0,1-.817-2.309,21.167,21.167,0,0,0,.35-2.7c0-3.207-1.05-4.746-3.262-4.746-3.613,0-5.477,5.775-5.477,13.73,0,3.207.35,6.8,1.4,8.979,1.165,2.952,3.029,4.619,5.826,4.619,3.5,0,5.71-2.18,7.341-7.185Zm6.64-9.365a78.881,78.881,0,0,0-.35-8.983,1.268,1.268,0,0,0-1.4-1.281h-2.1V68.343c3.5-.129,8.273-.386,11.651-1.54l.35.257c.233,1.54.466,5.262.583,7.571h.231c1.517-4.492,3.613-8.084,7.925-8.084,2.448,0,4.312,2.182,4.312,5.132,0,4.235-2.914,5.518-4.079,5.518a2.212,2.212,0,0,1-2.33-1.285c-.582-1.41-.932-2.18-2.1-2.18-1.283,0-1.982,1.283-2.8,3.336a14.9,14.9,0,0,0-.583,4.619c0,7.314,0,11.42.117,13.216s.7,2.307,5.358,2.437L59.1,99.522c-3.262-.129-6.176-.259-9.554-.259-3.5,0-6.059.129-8.972.259l.349-2.182c2.8-.129,3.5-.513,3.5-1.8.117-1.8.233-5.262.233-9.238V80.788h-.233Zm39.5-5.9c0-3.851-1.167-5.9-3.5-5.9-2.679,0-3.96,1.669-3.96,4.748a15.722,15.722,0,0,0,.231,2.439,1.915,1.915,0,0,1-.7,1.924,5.975,5.975,0,0,1-3.262,1.156c-2.215,0-4.079-1.158-4.079-3.978,0-4.106,5.477-8.725,13.167-8.725,6.29,0,9.086,2.823,10.136,4.619a6.927,6.927,0,0,1,.932,3.465v18.86c0,2.182.583,2.7,1.283,2.7.932,0,1.98-1.669,2.446-4.492L98.6,92.721c-1.05,5.518-4.079,7.828-8.273,7.828-3.613,0-5.593-1.669-6.176-5-2.8,3.079-5.708,5-8.737,5-4.893,0-8.156-3.593-8.156-9.5,0-3.593,1.4-5.645,3.846-6.8,3.96-1.926,9.9-3.849,12.814-6.159V74.886ZM76.577,89.129c0,2.823,1.05,5.9,3.613,5.9,1.864,0,2.679-1.283,3.262-2.566a10.437,10.437,0,0,0,.349-3.079V80.66c-1.283.9-3.262,1.926-4.778,2.952C77.624,84.639,76.577,85.92,76.577,89.129ZM99.646,67.7l3.728.127V65.777c.117-5.389,1.283-9.367,3.846-12.19a11.006,11.006,0,0,1,8.5-3.849c4.778,0,7.341,2.566,7.341,5.9a4.1,4.1,0,0,1-4.429,4.106,2.32,2.32,0,0,1-2.33-2.566c0-2.693-.349-4.874-2.1-4.874-1.167,0-1.864,1.154-2.1,3.336-.231,2.053.117,5.9.35,11.931h5.71l-.35,2.566-5.36.386c-.117,2.437-.117,6.672-.117,11.675,0,4.748,0,8.981.117,12.317.117,1.669.35,2.309,1.631,2.439a28.262,28.262,0,0,0,3.147.255L117,99.393c-2.213,0-5.708-.257-8.737-.257-3.147,0-6.875.257-8.972.257l.117-2.182c3.029-.127,3.5-.513,3.613-1.924.231-2.182.231-5.518.231-10.008V70.4l-3.96-.257.349-2.439Z" transform="translate(7.778 7.723)" fill="#fec63e"/><path d="M88.407,42.37l-.235,2.213-7.106.466c0,2.448-.117,6.059-.117,10.952,0,5.126,0,8.622.235,10.719.116,1.516.7,2.215,1.864,2.215,2.446,0,3.96-2.681,4.543-5.126h.932l.817,2.679c-1.4,3.38-4.9,5.71-10.022,5.71-2.8,0-5.242-.932-6.407-2.33a6.419,6.419,0,0,1-1.165-4.194c0-4.778.233-15.5.233-20.623L68.25,44.7l.233-2.213h3.5c.117-2.215.117-4.778.117-7.108A32.2,32.2,0,0,0,80.833,32l.7.117q-.305,5.179-.35,10.369h7.226v-.117Z" transform="translate(69.432 36.075)" fill="#fec63e"/><path d="M190,10V114H10V10ZM200,0H0V124H200Z" fill="#fec63e"/></g></g></svg>